<?xml version="1.0" standalone="no"?><!DOCTYPE svg PUBLIC "-//W3C//DTD SVG 1.1//EN" "http://www.w3.org/Graphics/SVG/1.1/DTD/svg11.dtd"><svg t="1596958559164" class="icon" viewBox="0 0 1024 1024" version="1.1" xmlns="http://www.w3.org/2000/svg" p-id="6236" xmlns:xlink="http://www.w3.org/1999/xlink" width="32" height="32"><defs><style type="text/css"></style></defs><path d="M953.6 715.9L753.3 515.6l181.5-181.5c28.2-28.2 24.6-61.1 16.7-83.7-14.4-34.4-72-85.6-114-123.1-12.7-11.4-24.4-21.7-33.7-30.6-29.2-29.2-78.8-30.1-106.6-2.4L513.6 278 313.3 77.7c-5.8-5.7-15.9-5.5-23.4 0.5l-208 210.1c-2.7 2.7-4.2 6.9-4.2 11.5 0 4.5 1.6 8.8 4.2 11.4l200.3 200.3L79.1 714c-0.8 0.5-2.5 3.2-2.5 8.1V939c0 7.1 7 15.6 15.6 15.6h216.9c8.3 0 9.6-1.7 10.8-3.3l1.7-1.9 200.2-200.2 200.3 198.1c5.5 5.5 15.4 5.5 20.8 0.1l212.9-212.6c2.1-1.5 3.3-3.5 3.5-6.1 0.3-4.1-1.8-8.9-5.7-12.8z" fill="#333333" p-id="6237"></path><path d="M732.6 129.8c10.4-10.4 29.2-10.4 39.6 0l131.4 131.4c10.4 10.4 10.4 29.2 0 39.6l-58.4 58.4-37.5-37.5v-2.1l-91.8-91.8-37.5-37.5 54.2-60.5z" fill="#27C18F" p-id="6238"></path><path d="M140.2 298.7L305 133.9l31.3 31.3-58.4 58.4c-8.3 8.3-8.3 20.9 0 27.1 8.3 8.3 20.9 8.3 29.2 0l58.4-58.4 48 48-29.2 29.2c-8.3 8.3-8.3 20.9 0 29.2s20.9 8.3 27.1 0l29.2-29.2 40.9 40.9-164 165.5-177.3-177.2z" fill="#FFBA40" p-id="6239"></path><path d="M642.9 217.4l25 25-513.1 513.1-25-23zM125.6 905.7V782.6l123.1 123.1zM184 782.6l513.1-513.1c20.9 22.9 41.7 43.8 64.7 64.7L248.7 847.3 184 782.6zM275.736 876.456l513.072-513.072 25.031 25.032-513.072 513.072z" fill="#27C18F" p-id="6240"></path><path d="M732.6 891.1L556.1 714.6l164-165.5 43.7 43.7-29.2 29.2c-8.3 8.3-8.3 20.9 0 29.2s20.9 8.3 27.1 0L791 622l48 45.9-58.4 58.4c-8.3 8.3-8.3 20.9 0 29.2s20.9 8.3 29.2 0l58.4-58.4 29.2 29.2-164.8 164.8z" fill="#FFBA40" p-id="6241"></path></svg>